<svg width="244" height="88" viewBox="0 0 244 88" fill="none" xmlns="http://www.w3.org/2000/svg">
<g filter="url(#filter0_d_1240_1132)">
<path d="M38.3975 75.5677L38.8051 76.0947L38.7094 74.8373L38.5924 74.3329L38.4152 73.8887C38.4187 74.4496 38.4187 75.0067 38.3975 75.5677Z" fill="#10295F"/>
<path d="M38.4009 75.2891H38.4541V75.5413H38.4009V75.2891Z" fill="#10295F"/>
<path d="M38.7329 75.6769L38.8038 76.0948L38.9846 74.6831L38.5698 74.7132L38.7329 75.6769Z" fill="#4D9EC8"/>
<path d="M61.8167 19.991C62.117 19.5449 62.3558 19.0556 62.5258 18.5378C62.6942 18.0313 62.7249 17.4847 62.6144 16.9605C62.384 15.9215 61.6076 15.1384 60.778 14.5587C59.9181 13.9854 58.997 13.5229 58.0341 13.1808C57.0724 12.8196 56.0909 12.5204 55.0952 12.2849C54.1027 12.0406 53.0977 11.8571 52.0854 11.7352C51.0715 11.611 50.0469 11.5244 49.0188 11.4454L47.4625 11.3136L47.0619 11.2722L46.8492 11.2383L46.7251 11.212C46.6971 11.2084 46.6697 11.2008 46.6436 11.1894C46.5935 11.1778 46.5456 11.1575 46.5018 11.1291L46.4451 11.0915C46.4238 11.0915 46.4273 11.0915 46.3281 10.9823C46.2535 10.8872 46.2078 10.7705 46.1969 10.6473C46.1933 10.5621 46.2062 10.477 46.2348 10.3973C46.2635 10.3177 46.3073 10.2451 46.3635 10.1842C46.4238 10.1278 46.3812 10.1617 46.3387 10.2106C46.3133 10.2422 46.2908 10.2762 46.2713 10.3122C46.2605 10.3328 46.251 10.3542 46.243 10.3762C46.2416 10.3988 46.2416 10.4214 46.243 10.444V10.5381C46.1969 10.453 46.1422 10.3735 46.0799 10.3009C45.7592 9.92653 45.4028 9.58842 45.0164 9.29204C44.6202 8.97521 44.2084 8.68116 43.7827 8.41113C42.9343 7.8618 42.0394 7.39799 41.1096 7.02576C40.1858 6.65678 39.2244 6.40408 38.2452 6.27285C37.2525 6.12603 36.2315 6.03568 35.2034 5.94533C34.1754 5.85498 33.165 5.77216 32.1546 5.73828C31.6512 5.73828 31.1478 5.71569 30.6586 5.73828C30.4175 5.73828 30.1729 5.7684 29.9496 5.79851L29.8113 5.8211C29.7227 5.85122 29.7829 5.8211 29.8113 5.8211L29.8893 5.77216C29.8893 5.77216 29.9283 5.74204 29.9673 5.7044C30.0028 5.67173 30.0348 5.63513 30.063 5.59523C30.1329 5.49361 30.1802 5.37647 30.2013 5.25265C30.2227 5.14466 30.2227 5.03312 30.2013 4.92513C30.1805 4.8415 30.1483 4.76157 30.1055 4.68796C30.0749 4.63546 30.0379 4.58738 29.9957 4.54491C29.96 4.50645 29.9194 4.4735 29.8751 4.44703L29.8255 4.41691H29.7936L29.907 4.44703C30.4723 4.56309 31.0223 4.75144 31.5449 5.00795C32.1067 5.29402 32.6112 5.69287 33.0303 6.1825C33.2427 6.43399 33.427 6.71063 33.5798 7.00694L33.9343 7.73727C34.1548 8.15558 34.4227 8.5437 34.7319 8.89299C35.3798 9.61231 36.1373 10.2105 36.9725 10.6623L39.2945 11.9724L36.6853 12.3489C35.1892 12.574 33.7062 12.8882 32.2433 13.29C30.7784 13.6891 29.3377 14.1819 27.9288 14.7657C26.5184 15.3391 25.1384 15.9939 23.7952 16.7271C22.4612 17.4739 21.1719 18.3074 19.9346 19.223C14.96 22.912 10.9688 27.905 8.34908 33.7166C7.01745 36.602 6.08606 39.6769 5.58387 42.8457C5.11214 46.036 5.02755 49.2774 5.33217 52.4905C5.63248 55.724 6.32969 58.9019 7.40607 61.9434C8.49517 64.9987 9.94616 67.8943 11.724 70.5605C9.75046 68.0131 8.1162 65.1896 6.86721 62.1692C6.25551 60.6449 5.73222 59.0821 5.30026 57.4899C4.88012 55.8891 4.56036 54.2605 4.34308 52.6148C3.90291 49.307 3.88621 45.9512 4.29344 42.6386C4.49578 40.9719 4.829 39.3261 5.28963 37.7183C5.74266 36.1129 6.3006 34.5431 6.95938 33.0201C9.58847 26.8693 13.7227 21.5796 18.9313 17.7021C20.2236 16.7361 21.5709 15.856 22.9657 15.0669C24.3659 14.2889 25.809 13.6012 27.2872 13.0077C28.7623 12.412 30.2692 11.9092 31.8001 11.5018C33.3301 11.091 34.8806 10.7717 36.4442 10.5456L36.1571 12.2435C35.1511 11.6912 34.244 10.956 33.477 10.0713C33.0874 9.61344 32.7506 9.10794 32.4737 8.56547L32.1192 7.83891C32.0277 7.65127 31.9159 7.47565 31.7859 7.31564C31.5115 6.98745 31.1806 6.71786 30.811 6.52131C30.3969 6.31165 29.9599 6.15738 29.51 6.06203C29.4391 6.03944 29.3752 6.02815 29.2512 5.98298C29.2122 5.96415 29.1945 5.96415 29.1306 5.93027L29.0349 5.87757C28.9774 5.83987 28.9239 5.79569 28.8754 5.74581C28.8284 5.69836 28.7868 5.64531 28.7513 5.5877C28.7036 5.50647 28.6689 5.41743 28.6485 5.32418C28.6253 5.20877 28.6253 5.08948 28.6485 4.97407C28.6722 4.83873 28.723 4.71037 28.7974 4.59761C28.8312 4.55227 28.8679 4.5095 28.9073 4.46962L29.0066 4.3868L29.1271 4.31527C29.2461 4.25585 29.3727 4.21526 29.5029 4.1948C29.5915 4.1948 29.6695 4.16469 29.7475 4.15339C30.0488 4.11951 30.3183 4.10445 30.5948 4.09692C31.1372 4.09692 31.6583 4.09692 32.1972 4.12704C33.2607 4.17975 34.2994 4.28515 35.324 4.40562C36.3485 4.52609 37.3908 4.64655 38.4402 4.83102C39.5096 5.0062 40.5564 5.3119 41.5599 5.74204C42.5499 6.17189 43.4995 6.70002 44.396 7.3194C44.8478 7.62888 45.2833 7.96443 45.7006 8.32454C46.1383 8.69357 46.5387 9.10991 46.8953 9.56685C47.0016 9.70233 47.0931 9.85007 47.1683 10.0073C47.2283 10.1246 47.2691 10.2519 47.2888 10.3838C47.2929 10.4364 47.2929 10.4893 47.2888 10.5419V10.6285C47.2839 10.6681 47.2756 10.7072 47.264 10.7452L47.2214 10.8581C47.2005 10.9029 47.1743 10.9446 47.1435 10.9823C47.0974 11.0388 47.0477 11.0764 47.1009 11.0275C47.1541 10.9786 47.2994 10.651 47.2604 10.5871C47.257 10.5055 47.2357 10.4259 47.1982 10.3546C47.1606 10.2834 47.1079 10.2224 47.0442 10.1767L47.0087 10.1541L46.9591 10.1278H47.0229L47.1931 10.1579L47.5476 10.2144L49.0755 10.4026C50.1036 10.5268 51.1388 10.6473 52.1704 10.8242C53.2049 11.0005 54.2288 11.2406 55.237 11.5433C56.2476 11.8349 57.2409 12.1907 58.2114 12.6086C59.1901 13.0239 60.1185 13.5623 60.9766 14.2123C61.4223 14.5412 61.8242 14.9325 62.1713 15.3756C62.5127 15.8215 62.741 16.3529 62.8342 16.9191C62.9175 17.4797 62.8499 18.0539 62.6392 18.5755C62.4297 19.0863 62.1528 19.563 61.8167 19.991Z" fill="#10295F"/>
<path d="M61.8181 19.991C62.1363 19.5622 62.3921 19.0851 62.5768 18.5756C62.7642 18.0787 62.8134 17.5352 62.7186 17.0095C62.513 15.9667 61.7614 15.1649 60.946 14.555C60.1087 13.9535 59.2065 13.4606 58.2588 13.0868C57.3113 12.6966 56.3401 12.3746 55.3518 12.1231C53.3807 11.596 51.3529 11.4643 49.2967 11.3062C48.7792 11.2685 48.2793 11.2384 47.7262 11.1706C47.6553 11.1706 47.5809 11.1706 47.4852 11.1292C47.3777 11.1052 47.277 11.0549 47.1909 10.9824C47.1014 10.9049 47.0369 10.7996 47.0066 10.6813C46.985 10.6027 46.9801 10.5201 46.9924 10.4393C47.0046 10.3586 47.0337 10.2817 47.0775 10.2144C47.315 9.93963 47.0775 10.2144 47.0775 10.2408C47.0545 10.2796 47.04 10.3233 47.035 10.3688V10.478C47.0205 10.4466 47.0039 10.4164 46.9853 10.3876C46.8554 10.2017 46.7094 10.029 46.5493 9.87187C45.8199 9.17191 45.0155 8.56542 44.1528 8.06488C43.2921 7.54257 42.3863 7.10892 41.4478 6.76986C40.5099 6.44801 39.5427 6.23223 38.5621 6.12612C37.5624 5.99812 36.5378 5.90777 35.5168 5.82119C34.4958 5.7346 33.4855 5.66308 32.4822 5.64802C31.9823 5.64802 31.4789 5.64802 31.011 5.6819L30.6813 5.71955L30.5607 5.7459L30.6564 5.69696L30.699 5.66308C30.738 5.63661 30.7728 5.60355 30.8018 5.5652C30.8549 5.50208 30.8991 5.43106 30.933 5.35438C30.9777 5.24392 30.9995 5.1245 30.9968 5.00428C30.9947 4.89754 30.9717 4.79243 30.9294 4.69558C30.9037 4.6366 30.8716 4.58101 30.8337 4.52994C30.7901 4.47205 30.7388 4.42131 30.6813 4.37936L30.6316 4.34924H30.5785L30.7344 4.38689L31.1315 4.48853C32.3361 4.76825 33.4035 5.5043 34.1342 6.55905C34.3011 6.8191 34.4493 7.09218 34.5774 7.37596C34.6979 7.63195 34.7972 7.83524 34.9141 8.03852C35.1504 8.44747 35.4299 8.82639 35.7473 9.1679C36.4232 9.86692 37.1939 10.4544 38.0339 10.9109L40.3488 12.2172L37.7503 12.5937C36.2566 12.8163 34.7759 13.128 33.3153 13.5273C32.585 13.7193 31.8653 13.9564 31.1421 14.1823C30.4189 14.4082 29.7241 14.6792 29.015 14.9804C26.1982 16.1017 23.5161 17.5726 21.0243 19.3624C16.0346 22.9916 11.9935 27.9059 9.2793 33.6452C7.90074 36.4923 6.91457 39.5351 6.35102 42.6801C5.79121 45.8435 5.64092 49.0732 5.90434 52.2798C6.17567 55.5077 6.81248 58.6892 7.80098 61.7552C8.77357 64.8461 10.0911 67.8023 11.7254 70.5606C9.89221 67.9092 8.39072 65.0165 7.25858 61.9548C5.49607 57.3372 4.61286 52.3944 4.65999 47.4122C4.68884 45.7464 4.82625 44.0848 5.07123 42.4392C5.11732 42.0213 5.20949 41.6185 5.28394 41.2082C5.35839 40.7979 5.42929 40.3875 5.52146 39.9809C5.69872 39.1603 5.91852 38.3584 6.15959 37.5641C6.63808 35.9725 7.22213 34.4188 7.90734 32.9148C8.5885 31.4091 9.36059 29.9517 10.2188 28.5517C11.0694 27.1436 12.0099 25.799 13.0336 24.5274C15.0919 21.9949 17.4473 19.7531 20.0423 17.8565C20.3578 17.6081 20.6911 17.3822 21.0243 17.1639L22.024 16.4938C22.7012 16.0646 23.396 15.6693 24.0873 15.2665C25.486 14.5002 26.9267 13.8239 28.4017 13.2412C29.132 12.9287 29.8871 12.6915 30.6316 12.4205C31.3761 12.1494 32.1383 11.9462 32.9005 11.7504C34.4262 11.3438 35.9719 11.0271 37.5305 10.8017L37.2468 12.4995C36.2489 11.9552 35.3403 11.2433 34.5561 10.3914C34.1478 9.95006 33.7908 9.45842 33.4925 8.92696C33.3437 8.66344 33.2125 8.37357 33.1061 8.1364C33.0153 7.92634 32.9098 7.72374 32.7906 7.53031C32.2909 6.80063 31.557 6.29043 30.7273 6.096L30.3728 6.00189L30.153 5.94166L29.9793 5.88142L29.912 5.8099L29.8694 5.78731L29.8021 5.73837C29.7297 5.69061 29.6661 5.6294 29.6142 5.55767C29.5693 5.50218 29.5323 5.44003 29.5043 5.3732C29.46 5.26742 29.4348 5.15379 29.4298 5.03816C29.4279 4.90874 29.4521 4.78038 29.5007 4.6617C29.5357 4.57734 29.5836 4.49974 29.6425 4.43206C29.6801 4.39021 29.7204 4.35122 29.7631 4.31536L29.8304 4.27019C29.8875 4.23239 29.9481 4.20086 30.0112 4.17607C30.0892 4.14972 30.1459 4.1309 30.1956 4.1196C30.2452 4.10831 30.3764 4.08196 30.4544 4.07066C30.6104 4.04807 30.7522 4.03678 30.894 4.02549C31.4541 3.98784 31.9823 3.99537 32.5141 4.02549C33.5776 4.06313 34.6164 4.15725 35.6444 4.27771C36.6725 4.39818 37.7042 4.51112 38.7464 4.65417C39.8129 4.80566 40.8618 5.07309 41.8768 5.45226C42.8818 5.85029 43.8492 6.34817 44.7661 6.93927C45.694 7.52732 46.5532 8.2299 47.3256 9.03237C47.5373 9.25401 47.7262 9.49882 47.8893 9.7627C47.9387 9.84981 47.9826 9.94037 48.0205 10.0337C48.0855 10.1937 48.1076 10.3696 48.0843 10.542C48.0693 10.62 48.0455 10.6958 48.0134 10.7678C48.0134 10.8205 47.7404 11.0916 47.9709 10.8318C48.0114 10.7672 48.0389 10.6944 48.0517 10.618C48.0645 10.5415 48.0623 10.4631 48.0453 10.3876C48.0195 10.2761 47.9597 10.1768 47.8751 10.1053C47.7262 9.9961 47.7546 10.0413 47.7582 10.0337L47.8964 10.0639C48.3644 10.1429 48.8926 10.1919 49.3996 10.2521C50.4276 10.3688 51.4593 10.4855 52.4874 10.6549C53.5243 10.8171 54.5491 11.0574 55.5539 11.3739C56.5584 11.6807 57.5426 12.0579 58.4999 12.5033C59.4631 12.9491 60.3714 13.518 61.2048 14.1974C61.6262 14.5426 62.0018 14.9465 62.3216 15.3983C62.6508 15.8527 62.8644 16.3894 62.942 16.9568C63.0076 17.5194 62.9203 18.0903 62.6903 18.6019C62.4656 19.108 62.1717 19.5761 61.8181 19.991Z" fill="#4D9EC8"/>
<path d="M64 77.962C60.086 77.588 56.1539 77.4749 52.2266 77.6232C50.9044 77.6312 49.5874 77.8018 48.3021 78.1314C44.679 79.1215 42.1159 81.3916 40.9956 82.4005C40.4353 82.9047 39.8993 83.4387 39.3897 84.0004H39.333C38.8234 83.4387 38.2874 82.9047 37.727 82.4005C36.6068 81.3916 34.0436 79.1215 30.4205 78.1314C29.1352 77.8018 27.8183 77.6312 26.496 77.6232C22.5688 77.4748 18.6366 77.588 14.7227 77.962" stroke="#4D9EC8" stroke-miterlimit="10"/>
<path d="M64 75.4547C60.086 75.0807 56.1539 74.9675 52.2266 75.1159C50.9043 75.1221 49.5871 75.2927 48.3021 75.6241C46.5544 76.0984 43.3106 76.9267 40.9956 79.8931C40.2923 80.7947 39.7319 81.8119 39.3365 82.9048C38.9582 81.8144 38.4145 80.7971 37.727 79.8931C35.4617 76.9342 32.2179 76.1286 30.4205 75.6241C29.1355 75.2927 27.8184 75.1221 26.496 75.1159C22.5688 74.9675 18.6366 75.0807 14.7227 75.4547" stroke="#4D9EC8" stroke-miterlimit="10"/>
<path d="M37.0358 28.1338L37.3903 28.7851V29.0222H36.7593L37.0358 28.1338Z" fill="#10295F"/>
<path d="M10.4135 68.3578C9.99872 67.2284 9.5733 66.1292 9.19752 64.9998C8.80704 63.8701 8.47799 62.7175 8.21197 61.5477C7.95179 60.3711 7.77405 59.1757 7.6802 57.9713C7.56496 56.764 7.55428 55.5479 7.64829 54.3385C7.74155 53.1276 7.92049 51.9258 8.18361 50.7433C8.29705 50.1485 8.47076 49.5688 8.61611 48.9815C8.76146 48.3942 8.97063 47.8258 9.16207 47.2573C9.94964 44.966 11.0061 42.7892 12.3066 40.7785C13.6176 38.7572 15.1893 36.9413 16.9755 35.3839C18.7767 33.8416 20.7598 32.5558 22.8746 31.5591C23.9343 31.0666 25.0225 30.6466 26.1326 30.3017C27.2422 29.9554 28.3235 29.658 29.4438 29.3681C31.6738 28.8073 33.9392 28.4186 36.2221 28.2048L37.041 28.1295V29.0105L37.1225 44.6974L37.1544 60.3844V60.2037L39.3134 71.5878L37.5692 71.7421L37.8812 60.9114L38.3137 61.7321C38.0364 61.5539 37.8249 61.2802 37.7146 60.9566C37.6288 60.7088 37.595 60.4442 37.6153 60.1811C37.6337 59.9024 37.7151 59.6325 37.8528 59.3943C37.9433 59.2487 38.0573 59.1213 38.1896 59.0179C38.363 58.8787 38.569 58.7928 38.7852 58.7694C38.9133 58.7542 39.0429 58.7631 39.1681 58.7958C39.4527 58.8683 39.704 59.0457 39.8771 59.2965C40.0341 59.5183 40.1397 59.7762 40.1855 60.0494C40.2325 60.3495 40.198 60.6577 40.0862 60.9378C39.9846 61.1903 39.8278 61.4136 39.6289 61.5891L39.9338 60.8362L40.5897 72.4198L38.9837 72.3445L40.7846 60.2978V60.4221C40.7846 52.5767 40.813 44.7351 40.9619 36.8859L41.0257 33.942C41.0257 33.4451 41.0505 32.9633 41.0789 32.4362C41.1109 31.9042 41.2086 31.3789 41.3696 30.8739C41.5293 30.362 41.769 29.8822 42.0786 29.4547C42.396 29.0316 42.7798 28.6699 43.2131 28.3855C43.6241 28.1167 44.0544 27.8826 44.4999 27.6853C44.9417 27.4857 45.3967 27.3208 45.8613 27.1922C46.7731 26.9748 47.6949 26.8077 48.6229 26.6915C49.5305 26.5447 50.4274 26.364 51.3208 26.1381C53.1081 25.7098 54.847 25.0787 56.5073 24.2558L56.5747 24.237H56.5534L56.603 24.2144L56.6952 24.1654L56.8866 24.0676L57.2624 23.8643C57.5106 23.7288 57.7587 23.5895 57.9998 23.4426C58.4893 23.1516 58.9628 22.8311 59.4178 22.4827C60.33 21.7819 61.1503 20.9552 61.8569 20.0244C61.1882 20.9949 60.4014 21.867 59.5171 22.6182C59.0733 22.9941 58.6093 23.3423 58.1274 23.661C57.8864 23.8229 57.6453 23.9772 57.3971 24.1278L57.0249 24.3424L56.837 24.4516L56.7413 24.5043L56.6952 24.5306C56.6586 24.5512 56.6191 24.5651 56.5782 24.572H56.6491C54.9929 25.4774 53.2492 26.1893 51.4484 26.6952C50.5503 26.9588 49.6439 27.1809 48.7293 27.3616C47.8146 27.5498 46.9 27.6778 46.0527 27.9488C45.6256 28.0647 45.2073 28.2145 44.8013 28.3968C44.4007 28.5896 44.0154 28.8162 43.6491 29.0745C42.9508 29.5672 42.4367 30.3036 42.1956 31.1563C42.0736 31.5856 42.0033 32.0295 41.9864 32.4776V36.8634L42.1034 48.6201L42.2665 60.3806V60.5049L40.5471 72.6005L39.4552 80.5061L38.9376 72.5365L38.1896 60.9604L38.4945 60.2075L38.4768 60.2376C38.4612 60.2768 38.4551 60.3195 38.459 60.3618L38.4803 60.407C38.5086 60.4475 38.5449 60.4809 38.5867 60.5049C38.6337 60.5352 38.6852 60.5569 38.7391 60.5689C38.8047 60.5814 38.872 60.5814 38.9376 60.5689C39.0306 60.5589 39.1197 60.5239 39.1964 60.4672C39.232 60.4388 39.2632 60.4045 39.2886 60.3656C39.3134 60.3204 39.3063 60.3167 39.3063 60.3204C39.3063 60.3242 39.2886 60.2414 39.1503 60.151L39.5828 60.9679L39.3063 71.7986L39.0972 80.0807L37.5657 71.9454L35.4209 60.5613V60.3957L35.4492 44.7087L35.5308 29.0217L36.3532 29.8274C34.1371 30.0074 31.9351 30.3483 29.7628 30.8476C27.5826 31.3746 25.4094 31.9205 23.3816 32.8315C21.3518 33.7472 19.4389 34.9311 17.6881 36.3551C15.9452 37.7974 14.4021 39.4931 13.1042 41.3921C10.474 45.2299 8.78421 49.7023 8.18715 54.4063C8.05589 55.5818 8.02741 56.7677 8.10207 57.9487C8.15441 59.1375 8.29069 60.3204 8.50976 61.4874C8.99244 63.822 9.62858 66.1177 10.4135 68.3578Z" fill="#10295F"/>
<path d="M10.5232 68.3241C9.70598 66.1168 9.05748 63.8431 8.58399 61.5253C8.47409 60.9455 8.34647 60.3583 8.2862 59.7635C8.22593 59.1687 8.16921 58.5776 8.14085 57.979C8.0853 56.783 8.12562 55.584 8.26138 54.3952C8.39947 53.2072 8.60546 52.0292 8.87824 50.8678C9.03422 50.2918 9.16185 49.7083 9.34619 49.1436L9.60853 48.289L9.90278 47.4458C10.7011 45.1914 11.7738 43.0576 13.0934 41.0987C14.4147 39.1318 15.9832 37.3662 17.7552 35.8509C19.5441 34.3555 21.5049 33.1082 23.5905 32.139C24.6366 31.6628 25.7092 31.2555 26.8024 30.9193C27.8943 30.5842 28.9685 30.2868 30.071 30.0083C32.2727 29.4631 34.5083 29.0857 36.7607 28.8789L37.4095 28.8186V29.5151L37.4733 45.2021L37.5052 60.8928V60.7573L39.6854 73.1804L38.2851 73.2971L38.5758 61.4086L38.9303 62.0598C38.688 61.9031 38.5039 61.6625 38.4092 61.3785C38.3317 61.1561 38.3015 60.9183 38.3206 60.682C38.3358 60.4335 38.4089 60.1929 38.5333 59.9818C38.5937 59.8543 38.6754 59.7395 38.7743 59.643C38.9239 59.5252 39.0999 59.4513 39.2848 59.4284C39.4926 59.4087 39.7009 59.4587 39.8804 59.5715C40.008 59.654 40.1198 59.7613 40.2101 59.8877C40.3518 60.0869 40.4466 60.3193 40.4866 60.5653C40.5279 60.8324 40.4972 61.1065 40.398 61.3559C40.3069 61.5816 40.1673 61.7814 39.9903 61.9394L40.2349 61.3596L40.554 73.6397L39.2742 73.5418L41.4013 60.7799V60.8853L41.6211 33.8255V32.9747C41.6224 32.6747 41.6449 32.3752 41.6884 32.0788C41.769 31.4745 41.9541 30.8912 42.2344 30.3584C42.5187 29.8251 42.9023 29.3589 43.3617 28.9881C43.8107 28.6388 44.299 28.3505 44.8152 28.1297C45.8086 27.6675 46.8515 27.3362 47.9208 27.1434C48.9843 26.9477 50.023 26.8159 51.0547 26.5787C53.1299 26.1071 55.1316 25.325 56.9999 24.256C58.8944 23.2484 60.5435 21.7885 61.8177 19.9907C60.5994 21.8679 58.9832 23.4153 57.0991 24.5082C55.2455 25.6234 53.2539 26.4572 51.1823 26.9853C50.14 27.2564 49.0765 27.4258 48.0484 27.6441C47.0266 27.859 46.0336 28.2067 45.0918 28.6794C44.6258 28.8914 44.1874 29.166 43.7871 29.4963C43.406 29.8221 43.0912 30.2268 42.8619 30.6859C42.6355 31.1473 42.4901 31.6486 42.4329 32.1654C42.3997 32.4274 42.3843 32.6916 42.3868 32.9559V33.7954L42.6031 60.8665V60.9719L40.5824 73.7714L39.5188 80.4837L39.299 73.6773L38.902 61.401V61.0246L39.1607 60.8326L39.1856 60.7949V60.8175C39.1865 60.805 39.1865 60.7924 39.1856 60.7799C39.2002 60.802 39.2197 60.8201 39.2423 60.8326C39.2759 60.8523 39.3116 60.8674 39.3486 60.8778C39.3945 60.8847 39.441 60.8847 39.4869 60.8778C39.5299 60.8749 39.5719 60.8628 39.6103 60.8421C39.6487 60.8214 39.6827 60.7925 39.7102 60.7573V60.7949C39.705 60.8185 39.705 60.843 39.7102 60.8665L39.6287 60.7912L39.9832 61.4425L39.7244 73.3347L39.5684 80.6004L38.3276 73.4477L36.1651 61.002V60.8702L36.1935 45.1795L36.2573 29.4925L36.9096 30.1325C34.7089 30.3085 32.5223 30.6456 30.3653 31.1414C28.2034 31.5997 26.0827 32.2546 24.0266 33.099C22.0046 33.9983 20.0985 35.1672 18.3544 36.5774C16.5916 38.0059 15.0239 39.6872 13.6961 41.573C12.3896 43.4627 11.3073 45.5161 10.4735 47.6867L10.1616 48.4998L9.88151 49.3318C9.68653 49.8814 9.54826 50.4612 9.38164 51.0108C9.07784 52.1422 8.84103 53.2926 8.67262 54.4554C8.509 55.6177 8.43902 56.7928 8.46346 57.9678C8.46346 58.555 8.50954 59.1461 8.55917 59.7296C8.60881 60.3131 8.71516 60.8928 8.81088 61.4763C9.21408 63.8025 9.78656 66.0919 10.5232 68.3241Z" fill="#4D9EC8"/>
<path d="M54.9997 26.0191C55.6171 25.8393 56.0404 25.3944 55.9451 25.0255C55.8498 24.6565 55.272 24.5033 54.6546 24.6831C54.0371 24.863 53.6139 25.3079 53.7092 25.6768C53.8045 26.0457 54.3823 26.199 54.9997 26.0191Z" fill="url(#paint0_linear_1240_1132)" stroke="white" stroke-width="0.5" stroke-miterlimit="10"/>
<path d="M61.909 19.8819C58.8307 19.077 55.6851 18.5965 52.518 18.4476C50.9404 18.3799 49.3522 18.361 47.7746 18.41C46.2011 18.4295 44.6311 18.5717 43.0773 18.8354C39.9608 19.3271 36.8957 20.1339 33.9238 21.2447C32.4438 21.795 30.997 22.4412 29.5916 23.1797C28.1809 23.9104 26.8081 24.7209 25.4793 25.6078C20.2006 29.1503 15.5706 33.9238 12.4438 39.6911C10.8982 42.5848 9.77241 45.7094 9.1043 48.9595C8.46569 52.2319 8.30903 55.5897 8.63989 58.913V58.9469L8.71788 59.6998L8.81714 60.4829C8.8845 61.0061 8.9625 61.5257 9.05112 62.0452C9.13975 62.5647 9.23547 63.0804 9.34537 63.5962C9.45527 64.1119 9.59707 64.6502 9.69988 65.1698V65.1246C9.83814 65.5801 9.96222 66.0431 10.1218 66.4911C10.2813 66.9391 10.4444 67.3909 10.6216 67.8313C10.7989 68.2718 10.9761 68.716 11.1817 69.1452C11.3874 69.5743 11.6001 69.9997 11.8163 70.4251C11.5788 70.0148 11.3306 69.612 11.1073 69.1866C10.884 68.7612 10.6712 68.3358 10.4692 67.9028C10.2671 67.4699 10.0898 67.0219 9.91259 66.5777C9.73533 66.1335 9.58644 65.6705 9.42691 65.2149V65.1698C9.28156 64.6691 9.12912 64.191 8.99795 63.6828C8.86678 63.1745 8.74624 62.6513 8.64343 62.1318C8.54062 61.6122 8.43427 61.089 8.3421 60.5657L8.21093 59.7751L8.15066 59.3798L8.1223 59.1841V59.0824C8.1179 59.0386 8.1179 58.9945 8.1223 58.9507V58.9846C7.68006 55.5998 7.75308 52.1615 8.33855 48.8014C8.94969 45.4337 10.0589 42.1899 11.6249 39.1904C13.1929 36.2029 15.1396 33.458 17.4105 31.0326C21.9562 26.1623 27.5047 22.4792 33.6189 20.2734C36.6574 19.1861 39.792 18.4293 42.9745 18.0147C44.5629 17.7896 46.1653 17.6939 47.7675 17.7286C49.3664 17.7286 50.9581 17.8001 52.5463 17.9469C55.7234 18.2345 58.8623 18.8832 61.909 19.8819Z" fill="url(#paint1_linear_1240_1132)"/>
<path d="M61.7484 19.8372C58.2266 19.2374 54.6616 18.9703 51.0953 19.0391C47.5439 19.1219 44.0094 19.5835 40.545 20.417C37.086 21.2138 33.7296 22.4486 30.5477 24.0949C27.381 25.7519 24.4067 27.7948 21.6849 30.1823C20.3229 31.3704 19.0434 32.6613 17.8562 34.0447C16.6736 35.4332 15.5759 36.9006 14.5698 38.438C13.5705 39.9742 12.7021 41.6019 11.9748 43.3018C11.2521 45.0054 10.6594 46.7679 10.2022 48.5722C9.3058 52.2139 9.01664 55.9941 9.34784 59.7417C9.47823 61.6229 9.7449 63.4906 10.1455 65.3283C10.5842 67.1634 11.2021 68.9449 11.989 70.6439C11.0884 68.9934 10.3744 67.2357 9.86188 65.4074C9.37107 63.5697 9.01549 61.6943 8.79834 59.7982C8.58916 57.8955 8.53579 55.9772 8.63881 54.0647C8.73257 52.1449 8.99246 50.2382 9.41519 48.3689C10.2515 44.6083 11.7177 41.0379 13.7438 37.8281C14.7643 36.2456 15.8823 34.7364 17.0904 33.3106C18.3046 31.8813 19.615 30.5477 21.0113 29.3202C23.8034 26.8791 26.8596 24.8002 30.1152 23.1275C33.3803 21.4831 36.8272 20.2815 40.3748 19.5511C43.9016 18.7859 47.496 18.4274 51.0953 18.482C54.6795 18.5626 58.2477 19.0166 61.7484 19.8372Z" fill="url(#paint2_linear_1240_1132)"/>
<path d="M61.8804 19.8663C58.3441 19.0878 54.7462 18.6668 51.1351 18.6089C49.3386 18.571 47.5417 18.6464 45.7536 18.8348C43.9661 19.0392 42.1908 19.3496 40.4359 19.7646C36.9282 20.548 33.5159 21.7529 30.2649 23.356C28.6519 24.169 27.089 25.0893 25.5854 26.1117C24.0888 27.146 22.6538 28.2775 21.2887 29.4998C19.9167 30.7188 18.6145 32.0237 17.389 33.4074C13.6867 37.5449 11.0412 42.618 9.70317 48.1458C9.25521 49.9828 8.96334 51.8588 8.83107 53.7512C8.63776 57.5635 8.98068 61.3852 9.84852 65.0901C10.314 66.942 10.9789 68.7306 11.8302 70.4207C10.8713 68.7806 10.1135 67.017 9.57554 65.1729C9.04372 63.3281 8.65832 61.4392 8.42337 59.5261C8.16967 57.6048 8.07359 55.6638 8.13622 53.7249C8.22142 51.779 8.47658 49.8457 8.89842 47.95C10.162 42.221 12.8364 36.9515 16.6481 32.6809C17.8964 31.2593 19.2235 29.918 20.6222 28.6641C22.0261 27.4159 23.5001 26.2593 25.0359 25.2007C26.5784 24.1456 28.1855 23.2011 29.8466 22.3735C34.8668 20.0185 40.2209 18.5669 45.6898 18.0781C47.5083 17.9458 49.3327 17.9319 51.1528 18.0367C52.9679 18.1496 54.776 18.3492 56.5663 18.6503C58.3581 18.9472 60.1324 19.3532 61.8804 19.8663Z" fill="url(#paint3_linear_1240_1132)"/>
<path d="M5.27344 54.644C5.73174 58.0704 6.68852 61.4003 8.10954 64.5148C9.29514 67.1047 10.8075 69.511 12.6048 71.6674C14.1327 73.4933 16.2137 75.5374 16.5576 75.2438C16.8377 75.0066 16.1357 73.1017 15.0722 71.611C14.4482 70.7338 13.7463 70.0675 13.9342 69.7287C14.037 69.5367 14.3135 69.6045 14.9977 69.4802C15.4692 69.3974 16.5186 69.2129 16.6001 68.8892C16.7384 68.3132 13.8527 67.0784 13.1224 66.7321C10.6301 65.5312 7.57777 62.5647 5.27344 54.644Z" fill="#060F34"/>
<path d="M5.27344 54.6362C5.82061 58.0496 6.86474 61.3518 8.36834 64.4241C9.62407 66.973 11.2021 69.3276 13.0585 71.4225C14.6361 73.1993 16.7738 75.187 17.1106 74.8746C17.3872 74.6261 16.632 72.7438 15.5224 71.2869C14.8772 70.4324 14.154 69.7811 14.3348 69.431C14.4305 69.2353 14.7106 69.2955 15.3983 69.1487C15.8663 69.0546 16.9121 68.8324 16.983 68.5087C17.1071 67.9289 14.1859 66.7845 13.4379 66.4608C10.9315 65.354 7.81175 62.4816 5.27344 54.6362Z" fill="#10295F"/>
<path d="M5.27002 54.6294C5.92437 58.0184 7.07135 61.2786 8.6698 64.2931C10.0047 66.7971 11.6568 69.0948 13.5798 71.122C15.2106 72.8424 17.4086 74.7435 17.7347 74.4273C18.0041 74.1713 17.1888 72.3154 16.0366 70.8999C15.363 70.0679 14.6185 69.4468 14.7887 69.0854C14.8809 68.8858 15.1432 68.9385 15.8522 68.7691C16.3166 68.6524 17.3554 68.3927 17.4156 68.0689C17.522 67.4854 14.5795 66.4464 13.8173 66.149C11.2613 65.1401 8.05295 62.3807 5.27002 54.6294Z" fill="#4D9EC8"/>
<path d="M74.648 33.2002H93.392V36.5602H86.048V50.0002H81.992V36.5362H74.648V33.2002ZM103.819 43.6882H95.8991V40.3282H105.331C106.867 40.3282 107.635 39.3922 107.635 38.4562C107.635 37.5202 106.867 36.5842 105.331 36.5842H95.8991V33.2002H106.027C109.723 33.2002 111.547 35.8162 111.547 38.4562C111.547 40.4962 110.419 42.5602 108.163 43.3522L113.323 50.0002H108.259L103.819 43.6882ZM115.904 33.2002H130.904V36.5842H115.904V33.2002ZM115.904 39.9202H130.904V43.2802H115.904V39.9202ZM115.976 46.6162H130.904V50.0002H115.976V46.6162ZM134.48 50.0002V33.2002H138.536L152.912 50.0002L148.328 50.0482L138.536 38.4322V50.0002H134.48ZM148.856 40.9762V33.2002H152.912V45.5122L148.856 40.9762ZM156.548 33.2002H166.172C171.908 33.2482 174.764 37.4242 174.764 41.6002C174.764 45.7762 171.908 49.9522 166.172 50.0002H156.548V46.6402H166.148C169.076 46.5922 170.54 44.0962 170.54 41.6002C170.54 39.0802 169.052 36.5602 166.052 36.5602H156.548V33.2002ZM177.913 33.2002H192.913V36.5842H177.913V33.2002ZM177.913 39.9202H192.913V43.2802H177.913V39.9202ZM177.985 46.6162H192.913V50.0002H177.985V46.6162ZM196.488 50.0002V33.2002H200.544L210.264 50.0002H206.232L200.544 40.0402V50.0002H196.488ZM208.584 41.8642L213.552 33.2002H217.608V50.0002H213.552V40.0402L210.624 45.1522L208.584 41.8642ZM220.291 33.2002H225.019L231.643 43.1122V50.0002H227.587V43.2562L220.291 33.2002ZM231.331 37.4002L234.211 33.2002H238.939L233.683 40.1842L231.331 37.4002Z" fill="url(#paint4_linear_1240_1132)"/>
</g>
<defs>
<filter id="filter0_d_1240_1132" x="-1" y="0" width="246" height="91.0005" filterUnits="userSpaceOnUse" color-interpolation-filters="sRGB">
<feFlood flood-opacity="0" result="BackgroundImageFix"/>
<feColorMatrix in="SourceAlpha" type="matrix" values="0 0 0 0 0 0 0 0 0 0 0 0 0 0 0 0 0 0 127 0" result="hardAlpha"/>
<feOffset dy="2"/>
<feGaussianBlur stdDeviation="0.5"/>
<feComposite in2="hardAlpha" operator="out"/>
<feColorMatrix type="matrix" values="0 0 0 0 0 0 0 0 0 0 0 0 0 0 0 0 0 0 0.2 0"/>
<feBlend mode="normal" in2="BackgroundImageFix" result="effect1_dropShadow_1240_1132"/>
<feBlend mode="normal" in="SourceGraphic" in2="effect1_dropShadow_1240_1132" result="shape"/>
</filter>
<linearGradient id="paint0_linear_1240_1132" x1="54.0939" y1="22.7639" x2="56.3684" y2="22.7284" gradientUnits="userSpaceOnUse">
<stop stop-color="#4D9EC8"/>
<stop offset="0.32" stop-color="#2F6296"/>
<stop offset="0.68" stop-color="#10295F"/>
<stop offset="1" stop-color="#060F34"/>
</linearGradient>
<linearGradient id="paint1_linear_1240_1132" x1="62.0508" y1="44.0769" x2="7.60825" y2="44.0769" gradientUnits="userSpaceOnUse">
<stop stop-color="white"/>
<stop offset="0.52" stop-color="#10295F"/>
</linearGradient>
<linearGradient id="paint2_linear_1240_1132" x1="61.8477" y1="44.5629" x2="8.38001" y2="44.5629" gradientUnits="userSpaceOnUse">
<stop stop-color="white"/>
<stop offset="0.54" stop-color="#4D9EC8"/>
</linearGradient>
<linearGradient id="paint3_linear_1240_1132" x1="62.0045" y1="44.2042" x2="7.90224" y2="44.2042" gradientUnits="userSpaceOnUse">
<stop stop-color="white"/>
<stop offset="0.48" stop-color="#376799"/>
<stop offset="1" stop-color="#2F6296"/>
</linearGradient>
<linearGradient id="paint4_linear_1240_1132" x1="74" y1="56.5809" x2="228.122" y2="-1.13589" gradientUnits="userSpaceOnUse">
<stop stop-color="#4799E9"/>
<stop offset="1" stop-color="#65F4CD"/>
</linearGradient>
</defs>
</svg>
