<svg width="43" height="46" viewBox="0 0 43 46" fill="none" xmlns="http://www.w3.org/2000/svg">
<path fill-rule="evenodd" clip-rule="evenodd" d="M27.7053 31.5929C27.9558 31.9368 28.0298 32.0574 28.0581 32.363C28.0775 32.5758 28.0633 32.6974 27.9946 32.8961L25.6625 39.6587C25.5535 39.9365 25.3275 40.2437 24.9994 40.542H27.5443C27.3556 40.3742 27.2345 40.175 27.1905 39.9376C27.1507 39.7206 27.1523 39.6388 27.1994 39.4302L27.7168 37.824H30.6785L31.1398 39.0616C31.188 39.1911 31.2158 39.3117 31.2279 39.4506C31.2687 39.9129 31.1204 40.2935 30.7535 40.5619H34.7431C34.3515 40.2133 33.9925 39.8485 33.7896 39.4055L30.8766 31.5929H27.7053ZM36.2187 36.3809L33.0835 31.8854L32.7648 31.5929H35.8549L37.9496 34.9913L38.1179 34.854L39.3838 32.9721C39.6952 32.5098 39.6532 31.973 39.2097 31.5929H42.13L38.7542 36.3799L38.7527 39.8527L39.3476 40.5603H35.7197L36.2313 39.8631C36.2313 38.7057 36.1888 37.5347 36.2187 36.3809ZM19.6379 31.6008L21.6425 31.5929H24.0768C25.4161 31.5929 26.5117 32.6885 26.5117 34.0273V34.3271C26.5117 35.6659 25.4156 36.6871 24.0768 36.7279L22.9666 36.7615C23.8593 36.351 24.233 35.3142 24.1214 34.3801C24.0322 33.6305 23.6459 32.9097 23.0027 32.8961L22.597 32.8877V39.5602C22.597 39.6902 22.6195 39.7442 22.6877 39.8584C22.7967 40.0398 22.9419 40.2212 23.0918 40.4025C23.1306 40.4497 23.1699 40.4969 23.2087 40.5441H19.7559C19.8078 40.4806 19.8586 40.4162 19.9068 40.3501C20.0117 40.2075 20.1045 40.056 20.1742 39.8873C20.2187 39.7793 20.2408 39.6991 20.2408 39.5832V32.4154C20.2271 32.0417 19.856 31.8294 19.6379 31.6008ZM30.2439 36.6593H28.1257L29.1526 33.7322L30.2439 36.6593ZM23.4184 9.18891L20.8221 11.7852L20.6926 11.9131L19.8675 12.7393L17.9401 14.6673L17.8122 14.7967H17.8106L16.5939 16.0113V16.0134L16.4666 16.1408C16.1017 16.5056 15.6986 16.8049 15.2698 17.0413C15.0528 17.1608 14.8311 17.2636 14.6041 17.3506C14.0988 17.5456 13.5678 17.6599 13.0331 17.6934C12.7055 17.7154 12.3726 17.7071 12.0466 17.6667C11.341 17.5828 10.6485 17.3574 10.0169 16.991C9.7464 16.8348 9.46858 16.6718 9.23846 16.4432C9.23688 16.4432 9.23688 16.4432 9.23531 16.4416C9.18499 16.3929 9.13467 16.3426 9.08434 16.2902L4.256 11.4623C4.1737 11.3716 4.09979 11.2726 4.03793 11.1667C3.87963 10.8993 3.78894 10.5906 3.78894 10.2577C3.78894 10.2058 3.79051 10.1534 3.79576 10.1031C3.80257 10.0255 3.8141 9.95161 3.8293 9.87927C3.83612 9.85096 3.84293 9.82265 3.84975 9.7954C3.85289 9.78386 3.85604 9.77181 3.85971 9.76028C3.9268 9.53854 4.03636 9.32834 4.18733 9.14015C4.22769 9.0914 4.26963 9.04423 4.31523 8.99705L4.3991 8.91475L9.43503 3.87673H9.43713L12.489 0.825395C13.1694 0.144991 14.2534 0.114588 14.9674 0.737854L23.4184 9.18891Z" fill="#0D5BA9"/>
<path fill-rule="evenodd" clip-rule="evenodd" d="M12.0458 34.6944V39.4876C12.0458 39.6821 12.0909 39.7167 12.2104 39.8729L12.7597 40.5884H10.1361C10.2834 40.363 10.4313 40.1376 10.5791 39.9122C10.6934 39.7261 10.7421 39.6627 10.7421 39.4467V32.7501L10.0051 31.5508H12.7236L17.1257 37.221V32.7024C17.1257 32.4865 17.0833 32.4168 16.969 32.2307C16.8212 32.0053 16.6671 31.7861 16.5198 31.5607H19.1407L18.594 32.2763C18.4745 32.4325 18.4294 32.4671 18.4294 32.6616V40.8175C17.4366 40.687 16.5119 40.4442 15.69 39.3932L12.0458 34.6944ZM0.916626 31.5508H3.70429L6.04324 38.2589L8.02784 32.7024C8.06348 32.4865 8.03255 32.4168 7.95025 32.2307C7.84017 32.0053 7.72275 31.7861 7.6132 31.5607H9.69477C9.57159 32.0142 9.38916 32.5122 9.23191 32.9693L6.54384 40.7813C5.80997 40.6351 4.99171 40.3447 4.35901 39.745C3.88304 39.2936 3.71372 38.7805 3.47888 38.1693L1.23062 32.216C1.14203 31.9811 1.033 31.7704 0.916626 31.5508ZM38.3068 14.0548L38.1789 14.1843L32.5124 19.9362L26.5623 25.9776C26.3725 26.1673 26.1738 26.3387 25.9636 26.4934C25.9573 26.5002 25.949 26.507 25.9401 26.5138C25.9117 26.5337 25.8829 26.5557 25.853 26.5757C25.8494 26.5788 25.8462 26.5809 25.8431 26.5841C24.9457 27.2262 23.8448 27.6026 22.6586 27.6026C21.193 27.6026 19.862 27.0275 18.8776 26.0918C18.8755 26.0903 18.8755 26.0903 18.8739 26.0887C18.8288 26.0499 18.7848 26.0111 18.7413 25.9707L17.7181 24.9475L14.8429 22.0707L13.7489 20.9762C13.9051 21.0019 14.0629 21.0134 14.2207 21.0134L14.3538 21.0119C14.5367 21.0051 14.7202 20.9836 14.9 20.9464C15.1941 20.8855 15.4913 20.7849 15.7838 20.647C16.4123 20.3498 16.8809 19.9378 17.1048 19.7197C17.1918 19.6338 17.2573 19.5614 17.2846 19.5295L19.4961 17.3567L19.504 17.3666L27.1085 9.88534L27.1483 9.83712L30.8423 6.20236C31.3398 5.71643 32.1161 5.65248 32.6807 6.04091L33.5561 6.91631C33.5576 6.91631 33.5576 6.91788 33.5576 6.91788L38.3068 11.6671C38.3488 11.709 38.3891 11.7525 38.4263 11.7981C38.9636 12.4618 38.9233 13.4399 38.3068 14.0548ZM9.17372 16.3791C9.19417 16.3995 9.21461 16.4194 9.23505 16.4393C9.46517 16.6679 9.74457 16.8325 10.0166 16.9892C10.6483 17.3551 11.3407 17.5805 12.0468 17.6644C12.3724 17.7047 12.7052 17.7131 13.0328 17.6911C13.567 17.6576 14.0985 17.5433 14.6044 17.3483C14.8313 17.2613 15.0526 17.1585 15.2696 17.039C15.6978 16.8026 16.1015 16.5033 16.4663 16.1384L16.5937 16.0111V16.009L17.8103 14.7939H17.8119L17.9398 14.6649L18.2994 14.3053L19.2524 13.3524L19.8673 12.7375L20.6924 11.9108L20.8218 11.7829L26.0528 6.55147L28.2109 4.21409C28.2156 4.20885 28.2187 4.20571 28.224 4.20046L28.3403 4.08671C28.9987 3.4278 30.0675 3.4278 30.7259 4.08671L31.9075 5.26772H31.909L31.9478 5.30651C31.4252 5.28135 30.8973 5.46954 30.5026 5.85587L26.5051 9.78784L26.4648 9.83712L19.5077 16.6831L19.4972 16.6747L16.9349 19.1919L16.9182 19.2123C16.9113 19.2207 16.8558 19.2826 16.7635 19.3732C16.5617 19.5698 16.1397 19.9415 15.5757 20.2088C15.3199 20.3294 15.0594 20.4169 14.8025 20.4709C14.6494 20.5008 14.4932 20.5212 14.3402 20.528H14.2243C13.8176 20.528 13.4176 20.4374 13.0344 20.2623L12.0667 19.2962L11.8298 19.0608L11.7894 19.0189L11.3392 18.5686L9.17372 16.3791C9.14384 16.3497 9.11396 16.3193 9.08356 16.2884L9.17372 16.3791Z" fill="#EC1F27"/>
<path d="M21.8579 43.3756C21.8579 43.7341 21.6461 43.9134 21.2189 43.9134C21.0527 43.9134 20.9437 43.9223 20.8912 43.9381C20.8425 43.9533 20.8168 43.9837 20.8168 44.0303C20.8168 44.0743 20.8425 44.1021 20.8944 44.1168C20.9468 44.1294 21.0558 44.1357 21.2189 44.1357C21.4752 44.1357 21.6508 44.1666 21.7473 44.2316C21.8469 44.2929 21.8961 44.4014 21.8961 44.5592C21.8961 44.7354 21.8469 44.8554 21.7441 44.9272C21.6461 44.998 21.4689 45.032 21.2189 45.032C20.9625 45.032 20.7838 44.998 20.6842 44.9272C20.5893 44.8585 20.5385 44.7506 20.5385 44.6027C20.5385 44.4539 20.5972 44.3422 20.7125 44.272C20.6286 44.2316 20.5862 44.1635 20.5862 44.0675C20.5862 43.9318 20.6685 43.851 20.8357 43.8264C20.6617 43.7551 20.5762 43.6041 20.5762 43.3756V43.3384C20.5762 43.0013 20.8137 42.8037 21.2189 42.8037C21.3389 42.8037 21.4453 42.8252 21.5365 42.865L21.7142 42.7078C21.7661 42.6616 21.7897 42.6616 21.8406 42.7078L21.861 42.7293C21.9119 42.7759 21.9119 42.8006 21.861 42.8504L21.7221 42.9919C21.8123 43.0758 21.8579 43.1895 21.8579 43.3384V43.3756ZM30.0279 43.3756C30.0279 43.7341 29.8162 43.9134 29.3889 43.9134C29.2228 43.9134 29.1132 43.9223 29.0613 43.9381C29.0126 43.9533 28.9869 43.9837 28.9869 44.0303C28.9869 44.0743 29.0126 44.1021 29.0645 44.1168C29.1169 44.1294 29.2259 44.1357 29.3889 44.1357C29.6453 44.1357 29.8209 44.1666 29.9173 44.2316C30.0169 44.2929 30.0662 44.4014 30.0662 44.5592C30.0662 44.7354 30.0169 44.8554 29.9142 44.9272C29.8162 44.998 29.639 45.032 29.3889 45.032C29.1326 45.032 28.9539 44.998 28.8543 44.9272C28.7589 44.8585 28.7085 44.7506 28.7085 44.6027C28.7085 44.4539 28.7673 44.3422 28.8826 44.272C28.7987 44.2316 28.7557 44.1635 28.7557 44.0675C28.7557 43.9318 28.838 43.851 29.0063 43.8264C28.8323 43.7551 28.7468 43.6041 28.7468 43.3756V43.3384C28.7468 43.0013 28.9837 42.8037 29.3889 42.8037C29.509 42.8037 29.6149 42.8252 29.7071 42.865L29.8843 42.7078C29.9362 42.6616 29.9603 42.6616 30.0106 42.7078L30.0311 42.7293C30.0819 42.7759 30.0819 42.8006 30.0311 42.8504L29.8916 42.9919C29.9823 43.0758 30.0279 43.1895 30.0279 43.3384V43.3756ZM12.7909 44.6195C12.8302 44.62 12.8695 44.6347 12.8983 44.6641C12.9571 44.7228 12.9571 44.8213 12.8983 44.88C12.8695 44.9094 12.8302 44.9241 12.7909 44.9241H12.7898C12.7505 44.9241 12.7112 44.9094 12.6819 44.88C12.6231 44.8213 12.6231 44.7228 12.6819 44.6641C12.7112 44.6347 12.7505 44.6195 12.7898 44.6195H12.7909ZM20.9164 44.3239C20.82 44.3705 20.7712 44.457 20.7712 44.577C20.7712 44.7783 20.885 44.8313 21.2189 44.8313C21.5402 44.8313 21.6634 44.7783 21.6634 44.5687C21.6634 44.3737 21.5496 44.3396 21.2189 44.3396C21.0862 44.3396 20.9846 44.3338 20.9164 44.3239ZM29.0865 44.3239C28.99 44.3705 28.9413 44.457 28.9413 44.577C28.9413 44.7783 29.055 44.8313 29.3889 44.8313C29.7098 44.8313 29.8335 44.7783 29.8335 44.5687C29.8335 44.3737 29.7197 44.3396 29.3889 44.3396C29.2558 44.3396 29.1546 44.3338 29.0865 44.3239ZM32.1703 43.9008C32.1703 44.2437 31.9696 44.3889 31.5229 44.3889C31.1686 44.3889 30.9427 44.2463 30.9427 43.9255C30.9427 43.6041 31.1529 43.4741 31.5738 43.4741H31.9376V43.2886C31.9376 43.0789 31.7955 43.0076 31.5329 43.0076C31.3966 43.0076 31.2823 43.0202 31.1927 43.0417C31.1198 43.0569 31.0947 43.0385 31.0947 42.9641V42.9395C31.0947 42.8687 31.1135 42.8504 31.188 42.8346C31.2891 42.8131 31.3998 42.8037 31.5214 42.8037C31.9533 42.8037 32.1703 42.9641 32.1703 43.2886V43.9008ZM17.2843 43.7404V43.4521C17.2843 43.0202 17.5086 42.8037 17.9626 42.8037C18.4422 42.8037 18.6367 43.0291 18.6367 43.4521V43.7404C18.6367 44.1729 18.4123 44.3889 17.9626 44.3889C17.4819 44.3889 17.2843 44.1635 17.2843 43.7404ZM15.8663 44.1912C15.8663 44.1137 15.8904 44.0953 15.9644 44.1116C16.1101 44.1509 16.2621 44.1729 16.4188 44.1729C16.6573 44.1729 16.7559 44.1294 16.7559 43.9968C16.7559 43.8977 16.7035 43.8453 16.5551 43.7745L16.1782 43.5947C15.9806 43.4988 15.8904 43.4065 15.8904 43.1926C15.8904 42.9248 16.0645 42.8037 16.4377 42.8037C16.5834 42.8037 16.7098 42.8226 16.8235 42.8619C16.8979 42.8876 16.9168 42.9054 16.9168 42.9772V43.0045C16.9168 43.082 16.8885 43.1004 16.8172 43.0789C16.6972 43.0385 16.5672 43.0202 16.4314 43.0202C16.2065 43.0202 16.1195 43.0695 16.1195 43.1926C16.1195 43.2797 16.1751 43.3478 16.2825 43.3971L16.6767 43.5764C16.8854 43.6754 16.985 43.7714 16.985 43.99C16.985 44.2657 16.7999 44.3889 16.401 44.3889C16.2558 44.3889 16.1101 44.371 15.9644 44.3302C15.8873 44.3092 15.8663 44.2804 15.8663 44.2154V44.1912ZM10.7402 43.8112C10.7402 44.0549 10.8419 44.1697 11.1549 44.1697C11.4668 44.1697 11.5648 44.0581 11.5648 43.8112V42.9332C11.5648 42.8566 11.5868 42.8346 11.6644 42.8346H11.6974C11.7818 42.8346 11.797 42.8566 11.797 42.9332V43.8112C11.797 44.1849 11.6094 44.3889 11.1549 44.3889C10.7245 44.3889 10.5096 44.1975 10.5096 43.8112V42.9332C10.5096 42.8566 10.53 42.8346 10.6076 42.8346H10.6406C10.7245 42.8346 10.7402 42.8566 10.7402 42.9332V43.8112ZM6.73278 43.7404V43.4521C6.73278 43.0207 6.95766 42.8037 7.41161 42.8037C7.89125 42.8037 8.08572 43.0291 8.08572 43.4521V43.7404C8.08572 44.1729 7.86137 44.3889 7.41161 44.3889C6.93093 44.3889 6.73278 44.1635 6.73278 43.7404ZM13.7591 43.4437C13.7591 43.0385 13.9777 42.8037 14.4473 42.8037C14.5501 42.8037 14.6387 42.8163 14.7194 42.8441C14.7938 42.8687 14.8127 42.8907 14.8127 42.961V42.9919C14.8127 43.0695 14.7938 43.091 14.7194 43.0663C14.6418 43.0385 14.5532 43.0228 14.4536 43.0228C14.1071 43.0228 13.9902 43.1586 13.9902 43.4469V43.7467C13.9902 44.0586 14.1297 44.1697 14.4725 44.1697C14.5773 44.1697 14.6706 44.1572 14.7514 44.1294C14.8221 44.1053 14.8431 44.1294 14.8431 44.207V44.2379C14.8431 44.3029 14.8221 44.327 14.7451 44.3485C14.6581 44.3763 14.5627 44.3889 14.4568 44.3889C13.9839 44.3889 13.7591 44.185 13.7591 43.7493V43.4437ZM3.70504 43.6193C3.70504 43.9784 3.85496 44.1635 4.24758 44.1635C4.40903 44.1635 4.55738 44.1357 4.69367 44.0827C4.76496 44.0549 4.7854 44.0743 4.7854 44.1509V44.1881C4.7854 44.2531 4.7681 44.2772 4.69367 44.3113C4.57835 44.3647 4.43105 44.3889 4.25387 44.3889C3.71447 44.3889 3.45972 44.1477 3.45972 43.6193V43.125C3.45972 42.5909 3.71448 42.322 4.24758 42.322C4.40274 42.322 4.5448 42.3497 4.67794 42.4016C4.75238 42.4294 4.7681 42.4583 4.7681 42.5196V42.5599C4.7681 42.637 4.73665 42.659 4.67165 42.6302C4.54218 42.5751 4.39645 42.5474 4.23972 42.5474C3.86492 42.5474 3.70504 42.7293 3.70504 43.125V43.6193ZM9.20907 43.4437C9.20907 43.0385 9.42714 42.8037 9.89734 42.8037C10.0001 42.8037 10.0887 42.8163 10.1694 42.8441C10.2438 42.8687 10.2627 42.8907 10.2627 42.961V42.9919C10.2627 43.0695 10.2438 43.091 10.1694 43.0663C10.0918 43.0385 10.0032 43.0228 9.90363 43.0228C9.55714 43.0228 9.44024 43.1586 9.44024 43.4469V43.7467C9.44024 44.0586 9.57915 44.1697 9.9225 44.1697C10.0268 44.1697 10.1201 44.1572 10.2008 44.1294C10.2721 44.1053 10.2931 44.1294 10.2931 44.207V44.2379C10.2931 44.3029 10.2721 44.327 10.1946 44.3485C10.1075 44.3763 10.0127 44.3889 9.90677 44.3889C9.43395 44.3889 9.20907 44.185 9.20907 43.7493V43.4437ZM24.6282 43.7404V43.4521C24.6282 43.0207 24.8531 42.8037 25.3071 42.8037C25.6504 42.8037 25.8449 42.9185 25.9319 43.1408C25.9812 43.1193 26.0252 43.06 26.0252 42.8933C26.0252 42.8472 26.0425 42.8346 26.0949 42.8346H26.1489C26.2008 42.8346 26.2134 42.8472 26.2134 42.8933C26.2134 43.1439 26.1138 43.2639 25.9717 43.3074C25.9775 43.3536 25.9812 43.4002 25.9812 43.4521V43.7404C25.9812 44.1729 25.7563 44.3889 25.3071 44.3889C24.8258 44.3889 24.6282 44.1635 24.6282 43.7404ZM36.6207 43.7404V43.4521C36.6207 43.0207 36.8451 42.8037 37.2996 42.8037C37.6429 42.8037 37.8374 42.9185 37.9244 43.1408C37.9731 43.1193 38.0177 43.06 38.0177 42.8933C38.0177 42.8472 38.035 42.8346 38.0874 42.8346H38.1409C38.1933 42.8346 38.2059 42.8472 38.2059 42.8933C38.2059 43.1439 38.1063 43.2639 37.9642 43.3074C37.97 43.3536 37.9731 43.4002 37.9731 43.4521V43.7404C37.9731 44.1729 37.7488 44.3889 37.2996 44.3889C36.8183 44.3889 36.6207 44.1635 36.6207 43.7404ZM12.7893 42.8037C13.2663 42.8047 13.4603 43.0302 13.4603 43.4521V43.7404C13.4603 44.1724 13.2364 44.3878 12.7888 44.3889H12.7862C12.305 44.3889 12.1073 44.1635 12.1073 43.7404V43.4521C12.1073 43.0202 12.3322 42.8037 12.7862 42.8037H12.7893ZM24.5889 42.5751C24.5889 42.6401 24.5664 42.6611 24.5019 42.6611H24.3163V43.7436C24.3163 44.1729 24.092 44.3889 23.6396 44.3889C23.1741 44.3889 22.9639 44.1729 22.9639 43.7436V43.4553C22.9639 43.0202 23.1757 42.8037 23.6029 42.8037C23.8404 42.8037 24.0018 42.8781 24.0857 43.0291V42.6611H23.6648C23.5935 42.6611 23.5777 42.6401 23.5777 42.5751V42.5505C23.5777 42.4855 23.5935 42.4635 23.6648 42.4635H24.0857V42.2942C24.0857 42.2103 24.0998 42.1951 24.1837 42.1951H24.2183C24.2943 42.1951 24.3163 42.2103 24.3163 42.2942V42.4635H24.5019C24.5664 42.4635 24.5889 42.4855 24.5889 42.5505V42.5751ZM26.541 44.2594C26.541 44.3422 26.5253 44.3579 26.4414 44.3579H26.4079C26.3308 44.3579 26.3083 44.3422 26.3083 44.2594V43.3819C26.3083 42.995 26.5253 42.8037 26.9541 42.8037C27.4096 42.8037 27.5978 43.0076 27.5978 43.3819V44.2594C27.5978 44.3422 27.5821 44.3579 27.4982 44.3579H27.462C27.3781 44.3579 27.3619 44.3422 27.3619 44.2594V43.3819C27.3619 43.1345 27.2675 43.0228 26.9541 43.0228C26.6422 43.0228 26.541 43.1376 26.541 43.3819V44.2594ZM32.7302 44.2594C32.7302 44.3422 32.7144 44.3579 32.6306 44.3579H32.5975C32.52 44.3579 32.4979 44.3422 32.4979 44.2594V43.3819C32.4979 42.995 32.7144 42.8037 33.1432 42.8037C33.5987 42.8037 33.7869 43.0076 33.7869 43.3819V44.2594C33.7869 44.3422 33.7712 44.3579 33.6873 44.3579H33.6512C33.5673 44.3579 33.5516 44.3422 33.5516 44.2594V43.3819C33.5516 43.1345 33.4567 43.0228 33.1432 43.0228C32.8313 43.0228 32.7302 43.1376 32.7302 43.3819V44.2594ZM38.5335 44.2594C38.5335 44.3422 38.5178 44.3579 38.4339 44.3579H38.4004C38.3233 44.3579 38.3008 44.3422 38.3008 44.2594V43.3819C38.3008 42.995 38.5178 42.8037 38.946 42.8037C39.4021 42.8037 39.5903 43.0076 39.5903 43.3819V44.2594C39.5903 44.3422 39.5746 44.3579 39.4907 44.3579H39.4545C39.3701 44.3579 39.3544 44.3422 39.3544 44.2594V43.3819C39.3544 43.1345 39.2595 43.0228 38.946 43.0228C38.6347 43.0228 38.5335 43.1376 38.5335 43.3819V44.2594ZM19.1971 44.2594C19.1971 44.3422 19.1808 44.3579 19.0975 44.3579H19.0639C18.9863 44.3579 18.9643 44.3422 18.9643 44.2594V43.3819C18.9643 42.995 19.1808 42.8037 19.6096 42.8037C20.0656 42.8037 20.2538 43.0076 20.2538 43.3819V44.2594C20.2538 44.3422 20.2381 44.3579 20.1542 44.3579H20.1175C20.0342 44.3579 20.0179 44.3422 20.0179 44.2594V43.3819C20.0179 43.1345 19.9231 43.0228 19.6096 43.0228C19.2982 43.0228 19.1971 43.1376 19.1971 43.3819V44.2594ZM35.0036 42.2942C35.0036 42.2103 35.024 42.1956 35.1016 42.1956H35.1367C35.219 42.1956 35.2348 42.2103 35.2348 42.2942V43.0139C35.3281 42.875 35.4879 42.8037 35.7202 42.8037C36.1002 42.8037 36.2915 42.983 36.2915 43.3447V44.2594C36.2915 44.3422 36.2758 44.3579 36.1935 44.3579H36.1552C36.0735 44.3579 36.0572 44.3422 36.0572 44.2594V43.3724C36.0572 43.1282 35.9482 43.0228 35.662 43.0228C35.3642 43.0228 35.2348 43.1408 35.2348 43.4243V44.2594C35.2348 44.3422 35.219 44.3579 35.1367 44.3579H35.1016C35.024 44.3579 35.0036 44.3422 35.0036 44.2594V42.2942ZM5.1146 42.2942C5.1146 42.2103 5.13504 42.1956 5.21262 42.1956H5.24722C5.32951 42.1956 5.34576 42.2103 5.34576 42.2942V43.0139C5.43907 42.875 5.59895 42.8037 5.83117 42.8037C6.21121 42.8037 6.40202 42.983 6.40202 43.3447V44.2594C6.40202 44.3422 6.38629 44.3579 6.30399 44.3579H6.26625C6.18395 44.3579 6.16822 44.3422 6.16822 44.2594V43.3724C6.16822 43.1282 6.05919 43.0228 5.77246 43.0228C5.47524 43.0228 5.34576 43.1408 5.34576 43.4243V44.2594C5.34576 44.3422 5.32951 44.3579 5.24722 44.3579H5.21262C5.13504 44.3579 5.1146 44.3422 5.1146 44.2594V42.2942ZM30.3791 42.9332C30.3791 42.8566 30.3933 42.8346 30.4772 42.8346H30.5123C30.5878 42.8346 30.6103 42.8566 30.6103 42.9332V44.2594C30.6103 44.3422 30.5878 44.3579 30.5123 44.3579H30.4772C30.3933 44.3579 30.3791 44.3422 30.3791 44.2594V42.9332ZM31.9376 43.6566H31.5769C31.3017 43.6566 31.1749 43.7305 31.1749 43.9255C31.1749 44.1016 31.2892 44.1881 31.5214 44.1881C31.8044 44.1881 31.9376 44.1231 31.9376 43.8914V43.6566ZM23.1951 43.7404C23.1951 44.0371 23.2978 44.1697 23.6396 44.1697C23.9766 44.1697 24.0857 44.0371 24.0857 43.7404V43.4521C24.0857 43.156 23.9766 43.0228 23.6396 43.0228C23.3041 43.0228 23.1951 43.156 23.1951 43.4521V43.7404ZM18.406 43.4521C18.406 43.156 18.2996 43.0228 17.9626 43.0228C17.6213 43.0228 17.5149 43.156 17.5149 43.4521V43.7404C17.5149 44.0366 17.6276 44.1697 17.9626 44.1697C18.2996 44.1697 18.406 44.0366 18.406 43.7404V43.4521ZM7.85456 43.4521C7.85456 43.1554 7.74867 43.0228 7.41161 43.0228C7.06984 43.0228 6.96395 43.1554 6.96395 43.4521V43.7404C6.96395 44.0366 7.07456 44.1697 7.41161 44.1697C7.74867 44.1697 7.85456 44.0366 7.85456 43.7404V43.4521ZM25.75 43.4521C25.75 43.1554 25.6441 43.0228 25.3071 43.0228C24.9653 43.0228 24.8594 43.1554 24.8594 43.4521V43.7404C24.8594 44.0366 24.9716 44.1697 25.3071 44.1697C25.6441 44.1697 25.75 44.0366 25.75 43.7404V43.4521ZM37.7425 43.4521C37.7425 43.1554 37.6361 43.0228 37.2996 43.0228C36.9578 43.0228 36.8519 43.1554 36.8519 43.4521V43.7404C36.8519 44.0366 36.9641 44.1697 37.2996 44.1697C37.6361 44.1697 37.7425 44.0366 37.7425 43.7404V43.4521ZM12.7862 43.0228C12.4444 43.0228 12.3385 43.1554 12.3385 43.4521V43.7404C12.3385 44.0371 12.4507 44.1697 12.7862 44.1697H12.7904C13.1237 44.1687 13.2291 44.0356 13.2291 43.7404V43.4521C13.2291 43.157 13.1237 43.0239 12.7904 43.0228H12.7862ZM29.7936 43.3384C29.7936 43.1193 29.6579 43.0108 29.3889 43.0108C29.1132 43.0108 28.9775 43.1193 28.9775 43.3384V43.3756C28.9775 43.5979 29.0771 43.7095 29.3889 43.7095C29.7003 43.7095 29.7936 43.5979 29.7936 43.3756V43.3384ZM21.6241 43.3384C21.6241 43.1193 21.4878 43.0108 21.2189 43.0108C20.9437 43.0108 20.8074 43.1193 20.8074 43.3384V43.3756C20.8074 43.5979 20.907 43.7095 21.2189 43.7095C21.5302 43.7095 21.6241 43.5979 21.6241 43.3756V43.3384ZM31.5769 42.6611C31.5182 42.6611 31.5119 42.6402 31.5025 42.6024C31.4931 42.5164 31.5486 42.4792 31.6419 42.3807C31.6655 42.356 31.6812 42.334 31.6812 42.3094C31.6812 42.257 31.6561 42.2318 31.6257 42.2292C31.5942 42.226 31.5329 42.235 31.4899 42.257C31.4553 42.269 31.4281 42.269 31.406 42.2229L31.3935 42.1983C31.3762 42.1516 31.406 42.1359 31.4375 42.1212C31.5119 42.0903 31.5612 42.0835 31.6194 42.0835C31.74 42.0835 31.8396 42.1516 31.8364 42.3094C31.8364 42.4452 31.6561 42.5007 31.6482 42.6024C31.6482 42.627 31.6225 42.6559 31.5911 42.6611H31.5769ZM17.7445 42.3985C17.8189 42.2847 17.8614 42.2475 17.9626 42.2475C18.0653 42.2475 18.1083 42.2785 18.1827 42.3985L18.2996 42.5814C18.3379 42.637 18.3248 42.6527 18.2603 42.6527H18.2352C18.1702 42.6527 18.1429 42.6401 18.1083 42.5814L18.037 42.4614C17.9883 42.3739 17.939 42.3739 17.8902 42.4614L17.8221 42.5814C17.787 42.6401 17.7587 42.6527 17.6942 42.6527H17.6669C17.6019 42.6527 17.5925 42.6333 17.6276 42.5814L17.7445 42.3985ZM12.7888 42.2475C12.8894 42.2481 12.9324 42.2795 13.0058 42.3985L13.1232 42.5814C13.161 42.6365 13.1484 42.6522 13.0855 42.6527H13.0582C12.9932 42.6527 12.9665 42.6401 12.9319 42.5814L12.8606 42.4609C12.836 42.4179 12.8119 42.3964 12.7877 42.3959H12.7867C12.7626 42.3959 12.7379 42.4174 12.7133 42.4609L12.6452 42.5814C12.6111 42.6396 12.5828 42.6522 12.5188 42.6527H12.4905C12.4255 42.6527 12.4161 42.6333 12.4507 42.5814L12.5681 42.3985C12.642 42.2847 12.685 42.2475 12.7862 42.2475H12.7888ZM30.6449 42.3592C30.6449 42.442 30.5799 42.507 30.4966 42.507C30.409 42.507 30.3414 42.442 30.3414 42.3592C30.3414 42.2753 30.409 42.2072 30.4966 42.2072C30.5799 42.2072 30.6449 42.2753 30.6449 42.3592ZM18.5324 42.2135C18.5004 42.2633 18.4579 42.2879 18.3992 42.2879H18.3678C18.2965 42.2879 18.2871 42.2722 18.3217 42.2103L18.4517 41.9603C18.4915 41.8858 18.5229 41.868 18.6068 41.868H18.6367C18.7206 41.868 18.7331 41.8858 18.686 41.9571L18.5324 42.2135ZM19.9545 7.75874C19.8203 7.89136 19.6002 7.88822 19.466 7.7535C17.224 5.49527 13.5641 5.48164 11.3053 7.72152C9.04867 9.9635 9.03347 13.6234 11.2754 15.8822L13.0299 17.6513C13.0414 17.6634 13.053 17.6765 13.0598 17.6901C13.0514 17.6901 13.043 17.6917 13.0346 17.6917C12.7154 17.7137 12.3925 17.7053 12.0754 17.6681L10.7864 16.3676C8.27758 13.8404 8.29226 9.74177 10.8199 7.23297C13.3492 4.72418 17.4457 4.74043 19.9545 7.26809L19.9598 7.27281C20.094 7.40753 20.0908 7.62402 19.9545 7.75874ZM15.2866 17.0312C15.2813 17.0349 15.2766 17.0364 15.2714 17.0401C15.0596 17.156 14.8447 17.2566 14.6229 17.342L12.2331 14.9329C10.7376 13.4253 10.5243 11.0643 11.7242 9.31664C11.8316 9.16043 12.0465 9.12007 12.2027 9.22753C12.361 9.33499 12.3993 9.54991 12.2919 9.70822C11.2786 11.1817 11.46 13.1747 12.7222 14.4469L15.2866 17.0312ZM19.7532 12.8539L19.2657 13.3409L16.5719 10.6256C15.9151 9.96193 14.8394 9.95878 14.1774 10.6156C13.5153 11.2745 13.5101 12.3481 14.169 13.0101L15.9046 14.7609C16.0393 14.8956 16.0393 15.1142 15.903 15.2484C15.7688 15.3826 15.5502 15.381 15.416 15.2468L13.6783 13.496C12.7542 12.563 12.7589 11.0522 13.6915 10.1265C14.6245 9.2008 16.1368 9.20709 17.061 10.1402L19.7532 12.8539ZM18.3127 14.2939L17.8258 14.7814L15.1251 12.0608C14.9909 11.9266 14.9925 11.708 15.1267 11.5733C15.263 11.4391 15.4816 11.4407 15.6142 11.5749L18.3127 14.2939ZM21.1948 11.4118L20.8236 11.7835L20.7078 11.8978L18.0187 9.18874C17.0206 8.18386 15.5639 7.83108 14.2141 8.26773C14.0343 8.32644 13.8393 8.22737 13.7806 8.0481C13.7219 7.8662 13.8209 7.6712 14.0028 7.61249C15.599 7.09511 17.3267 7.51342 18.5083 8.70334L21.1948 11.4118ZM22.6368 9.97031L22.1493 10.4573L21.2938 9.59709C21.1596 9.4608 21.1612 9.24273 21.2954 9.10959C21.4317 8.97539 21.6487 8.97539 21.7829 9.11168L22.6368 9.97031Z" fill="#00A0DD" stroke="#00A0DD" stroke-width="0.0366935" stroke-miterlimit="10"/>
</svg>
